<?xml version="1.0" encoding="utf-8"?>
<!-- Generator: Adobe Illustrator 16.0.3, SVG Export Plug-In . SVG Version: 6.00 Build 0)  -->
<!DOCTYPE svg PUBLIC "-//W3C//DTD SVG 1.1//EN" "http://www.w3.org/Graphics/SVG/1.1/DTD/svg11.dtd">
<svg version="1.1" id="Layer_1" xmlns="http://www.w3.org/2000/svg" xmlns:xlink="http://www.w3.org/1999/xlink" x="0px" y="0px"
	 width="30px" height="30px" viewBox="0 0 30 30" enable-background="new 0 0 30 30" xml:space="preserve">
<g>
	<g>
		<path fill="#332E3B" d="M25.606,25.606c-5.858,5.858-15.355,5.858-21.213,0c-5.858-5.857-5.858-15.354,0-21.213
			c5.858-5.858,15.354-5.858,21.213,0S31.465,19.749,25.606,25.606"/>
	</g>
	<g>
		<path fill="#FFFFFF" d="M15.619,15.279h6.99c0.199,0,0.358-0.16,0.358-0.357c0.001-0.197-0.159-0.357-0.358-0.357h-6.99V7.573
			c0-0.199-0.16-0.359-0.358-0.359s-0.358,0.16-0.358,0.358v6.992l-6.991-0.002c-0.198,0.002-0.358,0.162-0.358,0.358
			c0,0.101,0.04,0.188,0.105,0.254c0.064,0.063,0.153,0.104,0.253,0.104h6.991v6.992c0,0.099,0.04,0.188,0.105,0.253
			c0.064,0.064,0.154,0.104,0.253,0.104c0.198,0,0.358-0.16,0.358-0.357V15.279z"/>
	</g>
</g>
</svg>
