<?xml version="1.0" encoding="utf-8"?>
<!-- Generator: Adobe Illustrator 16.0.3, SVG Export Plug-In . SVG Version: 6.00 Build 0)  -->
<!DOCTYPE svg PUBLIC "-//W3C//DTD SVG 1.1//EN" "http://www.w3.org/Graphics/SVG/1.1/DTD/svg11.dtd">
<svg version="1.1" id="Layer_1" xmlns="http://www.w3.org/2000/svg" xmlns:xlink="http://www.w3.org/1999/xlink" x="0px" y="0px"
	 width="30px" height="30px" viewBox="0 0 30 30" enable-background="new 0 0 30 30" xml:space="preserve">
<g>
	<rect x="3.5" y="21.041" fill="#999999" width="22.999" height="1.076"/>
	<path fill="#999999" d="M26.5,22.617h-23c-0.276,0-0.5-0.225-0.5-0.5v-1.076c0-0.275,0.224-0.5,0.5-0.5h23
		c0.276,0,0.5,0.225,0.5,0.5v1.076C27,22.393,26.776,22.617,26.5,22.617z M4,21.617h22v-0.076H4V21.617z"/>
	<rect x="3" y="7.383" fill="none" width="24" height="15.234"/>
	<rect x="3.5" y="14.463" fill="#999999" width="22.999" height="1.074"/>
	<path fill="#999999" d="M26.5,16.037h-23c-0.276,0-0.5-0.223-0.5-0.5v-1.074c0-0.277,0.224-0.5,0.5-0.5h23
		c0.276,0,0.5,0.223,0.5,0.5v1.074C27,15.814,26.776,16.037,26.5,16.037z M4,15.037h22v-0.074H4V15.037z"/>
	<rect x="3.5" y="7.883" fill="#999999" width="22.999" height="1.076"/>
	<path fill="#999999" d="M26.5,9.459h-23c-0.276,0-0.5-0.225-0.5-0.5V7.883c0-0.275,0.224-0.5,0.5-0.5h23c0.276,0,0.5,0.225,0.5,0.5
		v1.076C27,9.234,26.776,9.459,26.5,9.459z M4,8.459h22V8.383H4V8.459z"/>
</g>
</svg>
