<?xml version="1.0" encoding="utf-8"?>
<!-- Generator: Adobe Illustrator 16.0.3, SVG Export Plug-In . SVG Version: 6.00 Build 0)  -->
<!DOCTYPE svg PUBLIC "-//W3C//DTD SVG 1.1//EN" "http://www.w3.org/Graphics/SVG/1.1/DTD/svg11.dtd">
<svg version="1.1" id="Layer_1" xmlns="http://www.w3.org/2000/svg" xmlns:xlink="http://www.w3.org/1999/xlink" x="0px" y="0px"
	 width="30px" height="30px" viewBox="0 0 30 30" enable-background="new 0 0 30 30" xml:space="preserve">
<g>
	<g>
		<path fill="#FFFFFF" d="M23.3,15.502H6.7c-0.276,0-0.5-0.224-0.5-0.5s0.224-0.5,0.5-0.5h16.6c0.276,0,0.5,0.224,0.5,0.5
			S23.576,15.502,23.3,15.502z"/>
	</g>
	<g>
		<path fill="#FFFFFF" d="M13.633,22.2c-0.13,0-0.26-0.051-0.358-0.151l-6.531-6.698c-0.037-0.039-0.068-0.082-0.091-0.128l0,0
			c-0.001,0-0.001-0.001-0.001-0.001v-0.001l0,0c-0.033-0.068-0.051-0.143-0.051-0.218l0,0v-0.001l0,0c0-0.001,0-0.001,0-0.001
			c0-0.001,0-0.001,0-0.001s0,0,0-0.001c0,0,0,0,0-0.001l0,0v-0.001l0,0c0-0.075,0.018-0.149,0.051-0.218l0,0v-0.001
			c0,0,0-0.001,0.001-0.001l0,0c0.022-0.046,0.054-0.089,0.091-0.128l6.531-6.698c0.194-0.197,0.511-0.202,0.707-0.01
			c0.198,0.193,0.202,0.51,0.01,0.707L7.798,15l6.193,6.352c0.192,0.197,0.188,0.514-0.01,0.707
			C13.885,22.153,13.759,22.2,13.633,22.2z"/>
	</g>
</g>
</svg>
