<?xml version="1.0" encoding="UTF-8"?>
<svg width="38px" height="38px" viewBox="0 0 38 38" version="1.1" xmlns="http://www.w3.org/2000/svg" xmlns:xlink="http://www.w3.org/1999/xlink">
    <title>Group</title>
    <g id="Page-1" stroke="none" stroke-width="1" fill="none" fill-rule="evenodd">
        <g id="Group-3" transform="translate(-1017.000000, -361.000000)">
            <g id="Group-2" transform="translate(1006.000000, 312.000000)">
                <g id="Group" transform="translate(12.000000, 50.000000)">
                    <circle id="Oval" stroke="#4D4D4D" cx="18" cy="18" r="18"></circle>
                    <path d="M11.2544085,27.35 C11.8015067,27.2492188 12.3450056,27.0728516 12.8849051,26.8208984 C13.4248047,26.5689453 13.9251116,26.2953962 14.3858259,26.0002511 C14.8465402,25.705106 15.2460658,25.4171596 15.5844029,25.1364118 C15.92274,24.8556641 16.1494978,24.6433036 16.2646763,24.4993304 C16.5094308,24.5425223 16.7217913,24.5677176 16.9017578,24.5749163 C17.0817243,24.582115 17.2724888,24.5857143 17.4740513,24.5857143 L18.0571429,24.5857143 L18.0571429,24.5857143 C19.5832589,24.5857143 21.0193917,24.3697545 22.3655413,23.9378348 C23.7116908,23.5059152 24.8850725,22.9120257 25.8856864,22.1561663 C26.8863002,21.4003069 27.6745536,20.5220703 28.2504464,19.5214565 C28.8263393,18.5208426 29.1142857,17.4446429 29.1142857,16.2928571 C29.1142857,15.1410714 28.8263393,14.0648717 28.2504464,13.0642578 C27.6745536,12.063644 26.8863002,11.1854074 25.8856864,10.429548 C24.8850725,9.67368862 23.7116908,9.07979911 22.3655413,8.64787946 C21.0193917,8.21595982 19.5832589,8 18.0571429,8 C16.5310268,8 15.094894,8.21595982 13.7487444,8.64787946 C12.4025949,9.07979911 11.2292132,9.67368862 10.2285993,10.429548 C9.22798549,11.1854074 8.43973214,12.063644 7.86383929,13.0642578 C7.28794643,14.0648717 7,15.1410714 7,16.2928571 C7,17.0127232 7.10438058,17.7001953 7.31314174,18.3552734 C7.5219029,19.0103516 7.82064732,19.6294364 8.209375,20.2125279 C8.59810268,20.7956194 9.08041295,21.3319196 9.6563058,21.8214286 C10.2321987,22.3109375 10.8872768,22.7428571 11.6215402,23.1171875 C11.6215402,23.1315848 11.6179408,23.1423828 11.6107422,23.1495815 C11.6035435,23.1567801 11.5999442,23.1675781 11.5999442,23.1819754 C11.5999442,23.8010603 11.466769,24.4165458 11.2004185,25.0284319 C10.9721181,25.5529058 10.7676174,25.9848254 10.5869163,26.3241908 L10.4985491,26.4861607 C10.4841518,26.5149554 10.4733538,26.5509487 10.4661551,26.5941406 C10.4589565,26.6373326 10.4553571,26.6805246 10.4553571,26.7237165 C10.4553571,26.8964844 10.5165458,27.0440569 10.638923,27.1664342 C10.7613002,27.2888114 10.9088728,27.35 11.0816406,27.35 L11.2544085,27.35 L11.2544085,27.35 Z M12.5069754,25.4711496 C12.6509487,25.1256138 12.7661272,24.7692801 12.8525112,24.4021484 C12.9388951,24.0350167 12.9820871,23.6642857 12.9820871,23.2899554 L13.003683,23.2467634 L13.003683,22.2749442 L12.2478237,21.8862165 C11.6287388,21.5838728 11.0816406,21.2275391 10.606529,20.8172154 C10.1314174,20.4068917 9.72829241,19.9641741 9.39715402,19.4890625 C9.06601562,19.0139509 8.8140625,18.5064453 8.64129464,17.9665458 C8.46852679,17.4266462 8.38214286,16.86875 8.38214286,16.2928571 C8.38214286,15.3426339 8.63769531,14.4464007 9.14880022,13.6041574 C9.65990513,12.7619141 10.3509766,12.0276507 11.2220145,11.4013672 C12.0930525,10.7750837 13.1152623,10.2819754 14.288644,9.92204241 C15.4620257,9.56210938 16.718192,9.38214286 18.0571429,9.38214286 C19.3960937,9.38214286 20.65226,9.56210938 21.8256417,9.92204241 C22.9990234,10.2819754 24.0212333,10.7750837 24.8922712,11.4013672 C25.7633092,12.0276507 26.4543806,12.7619141 26.9654855,13.6041574 C27.4765904,14.4464007 27.7321429,15.3426339 27.7321429,16.2928571 C27.7321429,17.2430804 27.4765904,18.1393136 26.9654855,18.9815569 C26.4543806,19.8238002 25.7633092,20.5580636 24.8922712,21.1843471 C24.0212333,21.8106306 22.9990234,22.3037388 21.8256417,22.6636719 C20.65226,23.0236049 19.3960937,23.2035714 18.0571429,23.2035714 L17.4740513,23.2035714 C17.2868862,23.2035714 17.121317,23.1999721 16.9773437,23.1927734 C16.8333705,23.1855748 16.6606027,23.1675781 16.4590402,23.1387835 L15.7031808,23.0308036 L15.2064732,23.6354911 C15.0912946,23.765067 14.7745536,24.0278181 14.25625,24.4237444 C13.7379464,24.8196708 13.1548549,25.1688058 12.5069754,25.4711496 Z" id="î½" fill="#4D4D4D" fill-rule="nonzero"></path>
                    <circle id="Oval" fill="#4D4D4D" cx="13.5" cy="16.5" r="1.5"></circle>
                    <circle id="Oval" fill="#4D4D4D" cx="23.5" cy="16.5" r="1.5"></circle>
                    <circle id="Oval" fill="#4D4D4D" cx="18.5" cy="16.5" r="1.5"></circle>
                </g>
            </g>
        </g>
    </g>
</svg>