<?xml version="1.0" encoding="utf-8"?>
<!-- Generator: Adobe Illustrator 16.0.3, SVG Export Plug-In . SVG Version: 6.00 Build 0)  -->
<!DOCTYPE svg PUBLIC "-//W3C//DTD SVG 1.1//EN" "http://www.w3.org/Graphics/SVG/1.1/DTD/svg11.dtd">
<svg version="1.1" id="Layer_1" xmlns="http://www.w3.org/2000/svg" xmlns:xlink="http://www.w3.org/1999/xlink" x="0px" y="0px"
	 width="25px" height="25px" viewBox="0 0 25 25" enable-background="new 0 0 25 25" xml:space="preserve">
<g>
	<path fill="#999999" d="M24.5,25h-24C0.224,25,0,24.776,0,24.5v-24C0,0.224,0.224,0,0.5,0h24C24.776,0,25,0.224,25,0.5v24
		C25,24.776,24.776,25,24.5,25z M1,24h23V1H1V24z"/>
</g>
<g>
	<path fill="#999999" d="M12.5,15.105L12.5,15.105c-0.08,0-0.16-0.019-0.232-0.057c-0.043-0.022-0.083-0.052-0.12-0.088l-4.25-4.207
		c-0.196-0.194-0.198-0.511-0.004-0.707c0.195-0.197,0.511-0.198,0.707-0.004l3.898,3.859l3.898-3.859
		c0.195-0.194,0.512-0.193,0.707,0.004c0.194,0.196,0.192,0.513-0.004,0.707l-4.25,4.207c-0.036,0.036-0.077,0.065-0.12,0.088
		C12.66,15.086,12.58,15.105,12.5,15.105z"/>
</g>
</svg>
