<?xml version="1.0" encoding="utf-8"?>
<!-- Generator: Adobe Illustrator 16.0.3, SVG Export Plug-In . SVG Version: 6.00 Build 0)  -->
<!DOCTYPE svg PUBLIC "-//W3C//DTD SVG 1.1//EN" "http://www.w3.org/Graphics/SVG/1.1/DTD/svg11.dtd" [
	<!ENTITY ns_extend "http://ns.adobe.com/Extensibility/1.0/">
	<!ENTITY ns_ai "http://ns.adobe.com/AdobeIllustrator/10.0/">
	<!ENTITY ns_graphs "http://ns.adobe.com/Graphs/1.0/">
	<!ENTITY ns_vars "http://ns.adobe.com/Variables/1.0/">
	<!ENTITY ns_imrep "http://ns.adobe.com/ImageReplacement/1.0/">
	<!ENTITY ns_sfw "http://ns.adobe.com/SaveForWeb/1.0/">
	<!ENTITY ns_custom "http://ns.adobe.com/GenericCustomNamespace/1.0/">
	<!ENTITY ns_adobe_xpath "http://ns.adobe.com/XPath/1.0/">
]>
<svg version="1.1" id="Layer_1" xmlns:x="&ns_extend;" xmlns:i="&ns_ai;" xmlns:graph="&ns_graphs;"
	 xmlns="http://www.w3.org/2000/svg" xmlns:xlink="http://www.w3.org/1999/xlink" x="0px" y="0px" width="13.48px" height="18px"
	 viewBox="0 0 13.48 18" enable-background="new 0 0 13.48 18" xml:space="preserve">
<metadata>
	<sfw  xmlns="&ns_sfw;">
		<slices></slices>
		<sliceSourceBounds  height="18" width="13.48" bottomLeftOrigin="true" y="-522.436" x="-65.453"></sliceSourceBounds>
	</sfw>
</metadata>
<g>
	<path fill="#303336" d="M1.405,0.649c-0.417,0-0.756,0.339-0.756,0.757v15.188c0,0.418,0.339,0.757,0.756,0.757h10.669
		c0.418,0,0.757-0.339,0.757-0.757V5.862c0-0.504-0.313-1.261-0.67-1.616L9.234,1.318C8.877,0.962,8.122,0.649,7.617,0.649H1.405z
		 M12.074,18H1.405C0.63,18,0,17.369,0,16.594V1.406C0,0.631,0.63,0,1.405,0h6.213c0.681,0,1.593,0.378,2.075,0.86l2.927,2.927
		c0.481,0.481,0.86,1.394,0.86,2.075v10.731C13.48,17.369,12.85,18,12.074,18"/>
	<path fill="#303336" d="M9.055,1.183C9.041,1.217,9.023,1.285,9.023,1.405v2.294c0,0.418,0.34,0.757,0.757,0.757h2.294
		c0.121,0,0.189-0.017,0.223-0.03c-0.015-0.034-0.05-0.095-0.136-0.181L9.234,1.318C9.149,1.233,9.088,1.197,9.055,1.183
		 M12.074,5.105H9.78c-0.774,0-1.405-0.631-1.405-1.406V1.405c0-0.65,0.35-0.883,0.649-0.883c0.221,0,0.444,0.114,0.669,0.337
		l2.927,2.928c0.408,0.407,0.358,0.735,0.293,0.894C12.848,4.84,12.651,5.105,12.074,5.105"/>
	<path fill="#303336" d="M4.048,13.259h-0.41v0.917h0.41c0.143,0,0.263-0.015,0.359-0.045c0.096-0.03,0.17-0.079,0.22-0.147
		c0.051-0.067,0.076-0.157,0.076-0.268c0-0.133-0.039-0.241-0.117-0.324C4.499,13.303,4.319,13.259,4.048,13.259 M4.195,14.635
		H3.638v0.85c0,0.121-0.028,0.213-0.086,0.276c-0.057,0.063-0.129,0.094-0.217,0.094c-0.091,0-0.165-0.031-0.221-0.093
		c-0.056-0.063-0.084-0.153-0.084-0.273v-2.313c0-0.134,0.031-0.229,0.092-0.287c0.062-0.057,0.159-0.085,0.293-0.085h0.78
		c0.23,0,0.408,0.017,0.532,0.053c0.123,0.034,0.229,0.091,0.319,0.17c0.089,0.079,0.157,0.177,0.203,0.291
		c0.047,0.114,0.07,0.243,0.07,0.387c0,0.306-0.094,0.537-0.283,0.695C4.848,14.556,4.568,14.635,4.195,14.635"/>
	<path fill="#303336" d="M6.439,13.283v2.037H6.9c0.101,0,0.18-0.003,0.238-0.008c0.057-0.005,0.116-0.02,0.178-0.041
		c0.061-0.022,0.114-0.053,0.159-0.092c0.203-0.173,0.305-0.469,0.305-0.89c0-0.296-0.045-0.518-0.134-0.665
		c-0.089-0.146-0.199-0.24-0.33-0.281c-0.131-0.04-0.29-0.061-0.475-0.061H6.439z M6.204,12.803h0.792
		c0.206,0,0.383,0.019,0.531,0.057c0.147,0.039,0.281,0.11,0.401,0.215c0.313,0.269,0.469,0.675,0.469,1.22
		c0,0.182-0.016,0.346-0.047,0.494c-0.031,0.149-0.08,0.283-0.146,0.402c-0.066,0.12-0.149,0.227-0.252,0.32
		c-0.08,0.072-0.168,0.131-0.264,0.175C7.593,15.729,7.49,15.76,7.38,15.777s-0.234,0.026-0.372,0.026H6.216
		c-0.11,0-0.194-0.018-0.25-0.051c-0.056-0.032-0.092-0.081-0.109-0.141c-0.017-0.061-0.026-0.14-0.026-0.236v-2.2
		c0-0.132,0.03-0.227,0.088-0.285C5.978,12.831,6.073,12.803,6.204,12.803"/>
	<path fill="#303336" d="M10.725,13.271H9.526v0.768h1.002c0.092,0,0.162,0.021,0.208,0.063c0.045,0.042,0.068,0.098,0.068,0.167
		s-0.023,0.125-0.07,0.166c-0.046,0.041-0.115,0.061-0.206,0.061H9.526v0.989c0,0.126-0.028,0.219-0.085,0.279
		s-0.129,0.092-0.219,0.092s-0.162-0.031-0.219-0.093c-0.058-0.062-0.086-0.154-0.086-0.278v-2.31c0-0.088,0.014-0.159,0.039-0.214
		c0.026-0.055,0.067-0.095,0.122-0.121c0.056-0.024,0.126-0.038,0.212-0.038h1.434c0.097,0,0.168,0.022,0.216,0.065
		c0.047,0.043,0.069,0.099,0.069,0.169s-0.022,0.128-0.069,0.171C10.893,13.25,10.821,13.271,10.725,13.271"/>
	<path fill="#ED3D36" d="M6.226,2.716c-0.004,0-0.015,0-0.031,0.006c-0.073,0.023-0.148,0.134-0.2,0.294
		C5.84,3.492,5.901,4.297,6.226,5.036C6.329,4.686,6.39,4.391,6.407,4.167c0.079-1.093-0.098-1.374-0.154-1.435
		C6.237,2.716,6.231,2.716,6.226,2.716 M6.399,6.478C6.173,7.034,5.897,7.637,5.598,8.229c0.743-0.184,1.417-0.27,1.806-0.307
		c0.05-0.005,0.101-0.011,0.151-0.015c-0.31-0.364-0.607-0.739-0.88-1.083C6.581,6.706,6.489,6.59,6.399,6.478 M9.004,8.506
		c0.49,0.454,0.9,0.707,1.247,0.771C10.33,9.292,10.408,9.3,10.482,9.3c0.257,0,0.425-0.089,0.473-0.17
		c0.008-0.017,0.02-0.036-0.009-0.087C10.838,8.854,10.307,8.545,9.004,8.506 M4.211,9.396c-0.453,0.219-0.827,0.472-1.118,0.756
		c-0.572,0.559-0.609,0.908-0.577,0.987c0.01,0.021,0.049,0.027,0.081,0.027c0.097,0,0.226-0.049,0.355-0.133
		C3.235,10.85,3.701,10.237,4.211,9.396 M2.597,11.815c-0.317,0-0.572-0.161-0.682-0.432c-0.183-0.449,0.081-1.067,0.725-1.696
		c0.504-0.492,1.207-0.896,2.093-1.205c0.47-0.873,0.904-1.809,1.207-2.608C5.268,4.827,5.143,3.535,5.379,2.813
		c0.152-0.467,0.416-0.642,0.61-0.707c0.27-0.091,0.547-0.022,0.739,0.185c0.291,0.312,0.397,0.94,0.326,1.922
		C7.026,4.604,6.896,5.13,6.667,5.776c0.01,0.014,0.02,0.025,0.03,0.037C6.85,6.001,7.013,6.206,7.183,6.421
		c0.365,0.459,0.774,0.975,1.19,1.437c0.123-0.003,0.241-0.005,0.355-0.005c1.471,0,2.457,0.307,2.779,0.866
		c0.139,0.238,0.142,0.506,0.008,0.734c-0.178,0.31-0.563,0.494-1.032,0.494h-0.001c-0.113,0-0.231-0.011-0.35-0.032
		C9.543,9.806,8.895,9.361,8.1,8.519C7.897,8.529,7.684,8.546,7.466,8.567C6.998,8.612,6.095,8.73,5.18,9.019
		c-0.394,0.71-1.241,2.146-1.873,2.559C3.068,11.733,2.823,11.815,2.597,11.815"/>
	<rect fill="none" width="13.48" height="18"/>
</g>
</svg>
