<?xml version="1.0" encoding="utf-8"?>
<!-- Generator: Adobe Illustrator 16.0.3, SVG Export Plug-In . SVG Version: 6.00 Build 0)  -->
<!DOCTYPE svg PUBLIC "-//W3C//DTD SVG 1.1//EN" "http://www.w3.org/Graphics/SVG/1.1/DTD/svg11.dtd" [
	<!ENTITY ns_extend "http://ns.adobe.com/Extensibility/1.0/">
	<!ENTITY ns_ai "http://ns.adobe.com/AdobeIllustrator/10.0/">
	<!ENTITY ns_graphs "http://ns.adobe.com/Graphs/1.0/">
	<!ENTITY ns_vars "http://ns.adobe.com/Variables/1.0/">
	<!ENTITY ns_imrep "http://ns.adobe.com/ImageReplacement/1.0/">
	<!ENTITY ns_sfw "http://ns.adobe.com/SaveForWeb/1.0/">
	<!ENTITY ns_custom "http://ns.adobe.com/GenericCustomNamespace/1.0/">
	<!ENTITY ns_adobe_xpath "http://ns.adobe.com/XPath/1.0/">
]>
<svg version="1.1" id="Layer_1" xmlns:x="&ns_extend;" xmlns:i="&ns_ai;" xmlns:graph="&ns_graphs;"
	 xmlns="http://www.w3.org/2000/svg" xmlns:xlink="http://www.w3.org/1999/xlink" x="0px" y="0px" width="25.795px"
	 height="21.145px" viewBox="0 0 25.795 21.145" enable-background="new 0 0 25.795 21.145" xml:space="preserve">
<metadata>
	<sfw  xmlns="&ns_sfw;">
		<slices></slices>
		<sliceSourceBounds  height="21.145" width="25.795" y="-373.897" x="467.309" bottomLeftOrigin="true"></sliceSourceBounds>
	</sfw>
</metadata>
<g>
	<g>
		<g>
			<g>
				<path fill="#494949" d="M11.534,12.058c-0.556,0-0.999-0.058-1.29-0.341c-0.203-0.195-0.301-0.475-0.301-0.855
					c0-1.306,1.242-3.825,2.94-3.825c0.708,0,1.424,0.462,2.018,1.3c0.062,0.085,0.042,0.205-0.045,0.266
					C14.77,8.662,14.65,8.645,14.59,8.56c-0.303-0.425-0.925-1.139-1.706-1.139c-1.401,0-2.56,2.279-2.56,3.438
					c0,0.268,0.061,0.457,0.184,0.578c0.275,0.265,1.573,0.244,2.299,0.219l0.339-0.012c0.098-0.001-0.479,0.085-0.476,0.188
					c0.003,0.106,0.591,0.194,0.485,0.196l-0.335,0.011C12.604,12.05,11.727,12.058,11.534,12.058z"/>
				<path fill="#494949" d="M11.534,12.532c-0.588,0-1.19-0.058-1.62-0.475c-0.294-0.284-0.444-0.687-0.444-1.195
					c0-1.51,1.408-4.298,3.414-4.298c0.864,0,1.719,0.533,2.403,1.5C15.39,8.207,15.43,8.384,15.4,8.56
					c-0.029,0.176-0.127,0.329-0.272,0.431l-0.122,0.085l-0.262,0.035c-0.215,0-0.418-0.104-0.541-0.28
					c-0.199-0.28-0.731-0.938-1.318-0.938c-1.014,0-2.086,1.929-2.086,2.965c0,0.163,0.031,0.229,0.043,0.24
					c-0.01-0.005,0.207,0.097,1.244,0.097c0.257,0,0.504-0.006,0.706-0.014l0.777-0.027l0.107,0.856l-0.042,0.009l0.006,0.056
					l-0.045,0.414l-0.759,0.021C12.625,12.523,11.731,12.532,11.534,12.532z"/>
			</g>
		</g>
		<g>
			<g>
				<g>
					<circle fill="#FFFFFF" cx="12.885" cy="6.41" r="1.793"/>
					<path fill="#494949" d="M12.885,8.676c-1.25,0-2.267-1.017-2.267-2.267c0-1.25,1.017-2.266,2.267-2.266
						c1.25,0,2.267,1.016,2.267,2.266C15.152,7.659,14.134,8.676,12.885,8.676z M12.885,5.09c-0.728,0-1.32,0.592-1.32,1.319
						c0,0.728,0.592,1.32,1.32,1.32s1.319-0.592,1.319-1.32C14.204,5.682,13.612,5.09,12.885,5.09z"/>
				</g>
			</g>
			<g>
				<g>
					<g>
						<g>
							<path fill="#494949" d="M12.885,8.41c-0.543,0-1.054-0.212-1.439-0.597c-0.384-0.385-0.596-0.894-0.596-1.439
								c0-0.544,0.212-1.056,0.596-1.44c0.385-0.384,0.896-0.596,1.439-0.596s1.056,0.212,1.438,0.596
								c0.794,0.793,0.794,2.085,0,2.879C13.941,8.2,13.428,8.41,12.885,8.41z M12.885,4.723c-0.441,0-0.855,0.173-1.168,0.483
								c-0.312,0.315-0.484,0.726-0.484,1.167c0,0.444,0.173,0.855,0.484,1.169c0.312,0.312,0.727,0.482,1.168,0.482
								s0.856-0.173,1.167-0.482c0.645-0.646,0.645-1.691,0-2.337C13.742,4.895,13.326,4.723,12.885,4.723z"/>
							<path fill="#494949" d="M12.885,8.884c-0.67,0-1.3-0.261-1.774-0.736c-0.473-0.475-0.734-1.105-0.734-1.773
								c0-0.669,0.261-1.3,0.734-1.774c0.956-0.951,2.605-0.946,3.548,0c0.473,0.472,0.733,1.103,0.733,1.773
								c0,0.67-0.261,1.301-0.733,1.774C14.189,8.622,13.559,8.884,12.885,8.884z M12.885,5.197c-0.313,0-0.61,0.123-0.835,0.346
								c-0.224,0.226-0.344,0.514-0.344,0.831c0,0.318,0.121,0.607,0.347,0.836c0.439,0.438,1.215,0.446,1.667-0.003
								C14.175,6.75,14.175,6,13.717,5.541C13.496,5.319,13.2,5.197,12.885,5.197z"/>
						</g>
					</g>
				</g>
			</g>
		</g>
		<g>
			<g>
				<path fill="#494949" d="M11.534,12.058c-0.556,0-0.999-0.058-1.29-0.341c-0.203-0.195-0.301-0.475-0.301-0.855
					c0-1.306,1.242-3.825,2.94-3.825c0.708,0,1.424,0.462,2.018,1.3c0.062,0.085,0.042,0.205-0.045,0.266
					C14.77,8.662,14.65,8.645,14.59,8.56c-0.303-0.425-0.925-1.139-1.706-1.139c-1.401,0-2.56,2.279-2.56,3.438
					c0,0.268,0.061,0.457,0.184,0.578c0.275,0.265,1.573,0.244,2.299,0.219l0.339-0.012c0.098-0.001-0.479,0.085-0.476,0.188
					c0.003,0.106,0.591,0.194,0.485,0.196l-0.335,0.011C12.604,12.05,11.727,12.058,11.534,12.058z"/>
				<path fill="#494949" d="M11.534,12.532c-0.588,0-1.19-0.058-1.62-0.475c-0.294-0.284-0.444-0.687-0.444-1.195
					c0-1.51,1.408-4.298,3.414-4.298c0.864,0,1.719,0.533,2.403,1.5C15.39,8.207,15.43,8.384,15.4,8.56
					c-0.029,0.176-0.127,0.329-0.272,0.431l-0.122,0.085l-0.262,0.035c-0.215,0-0.418-0.104-0.541-0.28
					c-0.199-0.28-0.731-0.938-1.318-0.938c-1.014,0-2.086,1.929-2.086,2.965c0,0.163,0.031,0.229,0.043,0.24
					c-0.01-0.005,0.207,0.097,1.244,0.097c0.257,0,0.504-0.006,0.706-0.014l0.777-0.027l0.107,0.856l-0.042,0.009l0.006,0.056
					l-0.045,0.414l-0.759,0.021C12.625,12.523,11.731,12.532,11.534,12.532z"/>
			</g>
		</g>
		<g>
			<g>
				<path fill="#494949" d="M12.965,12.039l0.336-0.011c-0.106-0.002-0.189-0.09-0.186-0.196c0.003-0.103,0.098-0.188,0.196-0.188
					l-0.333,0.012c0.727,0.025,2.024,0.046,2.299-0.219c0.125-0.121,0.185-0.31,0.185-0.578c0-1.159-1.158-3.438-2.56-3.438
					c-0.781,0-1.403,0.713-1.705,1.139c-0.061,0.085-0.181,0.103-0.266,0.044c-0.086-0.061-0.107-0.181-0.045-0.266
					c0.594-0.838,1.31-1.3,2.018-1.3c1.699,0,2.941,2.519,2.941,3.825c0,0.38-0.099,0.66-0.302,0.855
					c-0.291,0.283-1.405,0.341-1.961,0.341C13.389,12.058,13.182,12.05,12.965,12.039z"/>
				<path fill="#494949" d="M13.581,12.532c-0.2,0-0.415-0.009-0.642-0.021l0.002-0.118c-0.042-0.027-0.082-0.06-0.117-0.097
					c-0.123-0.13-0.188-0.3-0.184-0.478c0.007-0.226,0.128-0.43,0.321-0.549v-0.087l0.347-0.012v0.02l0.393,0.005
					c0.942,0,1.21-0.092,1.264-0.117c-0.003-0.006,0.022-0.066,0.022-0.22c0-1.037-1.071-2.965-2.086-2.965
					c-0.588,0-1.119,0.657-1.319,0.94c-0.124,0.173-0.325,0.277-0.541,0.277h-0.147l-0.233-0.119
					c-0.149-0.104-0.246-0.258-0.275-0.434s0.012-0.353,0.116-0.498c0.683-0.963,1.537-1.496,2.401-1.496
					c2.005,0,3.415,2.788,3.415,4.298c0,0.509-0.151,0.912-0.447,1.196C15.468,12.449,14.404,12.532,13.581,12.532z"/>
			</g>
		</g>
		<g>
			<g>
				<g>
					<circle fill="#FFFFFF" cx="12.885" cy="6.41" r="1.793"/>
					<path fill="#494949" d="M12.885,8.676c-1.25,0-2.267-1.017-2.267-2.267c0-1.25,1.017-2.266,2.267-2.266
						c1.25,0,2.267,1.016,2.267,2.266C15.152,7.659,14.134,8.676,12.885,8.676z M12.885,5.09c-0.728,0-1.32,0.592-1.32,1.319
						c0,0.728,0.592,1.32,1.32,1.32s1.319-0.592,1.319-1.32C14.204,5.682,13.612,5.09,12.885,5.09z"/>
				</g>
			</g>
			<g>
				<g>
					<g>
						<g>
							<path fill="#494949" d="M12.885,8.41c-0.543,0-1.054-0.212-1.439-0.597c-0.384-0.385-0.596-0.894-0.596-1.439
								c0-0.544,0.212-1.056,0.596-1.44c0.385-0.384,0.896-0.596,1.439-0.596s1.056,0.212,1.438,0.596
								c0.794,0.793,0.794,2.085,0,2.879C13.941,8.2,13.428,8.41,12.885,8.41z M12.885,4.723c-0.441,0-0.855,0.173-1.168,0.483
								c-0.312,0.315-0.484,0.726-0.484,1.167c0,0.444,0.173,0.855,0.484,1.169c0.312,0.312,0.727,0.482,1.168,0.482
								s0.856-0.173,1.167-0.482c0.645-0.646,0.645-1.691,0-2.337C13.742,4.895,13.326,4.723,12.885,4.723z"/>
							<path fill="#494949" d="M12.885,8.884c-0.67,0-1.3-0.261-1.774-0.736c-0.473-0.475-0.734-1.105-0.734-1.773
								c0-0.669,0.261-1.3,0.734-1.774c0.956-0.951,2.605-0.946,3.548,0c0.473,0.472,0.733,1.103,0.733,1.773
								c0,0.67-0.261,1.301-0.733,1.774C14.189,8.622,13.559,8.884,12.885,8.884z M12.885,5.197c-0.313,0-0.61,0.123-0.835,0.346
								c-0.224,0.226-0.344,0.514-0.344,0.831c0,0.318,0.121,0.607,0.347,0.836c0.439,0.438,1.215,0.446,1.667-0.003
								C14.175,6.75,14.175,6,13.717,5.541C13.496,5.319,13.2,5.197,12.885,5.197z"/>
						</g>
					</g>
				</g>
			</g>
		</g>
	</g>
	<g>
		<g>
			<path fill="#494949" d="M11.727,21.145H7.444c-1.78,0-3.228-1.449-3.228-3.229V3.229C4.216,1.449,5.664,0,7.444,0h10.9
				c1.779,0,3.229,1.449,3.229,3.229v6.12c0,0.424-0.345,0.769-0.771,0.769c-0.425,0-0.77-0.345-0.77-0.769v-6.12
				c0-0.932-0.758-1.691-1.689-1.691h-10.9c-0.932,0-1.69,0.759-1.69,1.691v14.686c0,0.932,0.758,1.689,1.69,1.689h4.283
				c0.425,0,0.77,0.345,0.77,0.771C12.497,20.8,12.152,21.145,11.727,21.145z"/>
		</g>
		<g>
			<path fill="#494949" d="M11.727,21.145H7.444c-1.78,0-3.228-1.449-3.228-3.229V3.229C4.216,1.449,5.664,0,7.444,0h10.9
				c1.779,0,3.229,1.449,3.229,3.229v6.12c0,0.424-0.345,0.769-0.771,0.769c-0.425,0-0.77-0.345-0.77-0.769v-6.12
				c0-0.932-0.758-1.691-1.689-1.691h-10.9c-0.932,0-1.69,0.759-1.69,1.691v14.686c0,0.932,0.758,1.689,1.69,1.689h4.283
				c0.425,0,0.77,0.345,0.77,0.771C12.497,20.8,12.152,21.145,11.727,21.145z"/>
		</g>
		<g>
			<path fill="#494949" d="M11.727,21.145H7.444c-1.78,0-3.228-1.449-3.228-3.229V3.229C4.216,1.449,5.664,0,7.444,0h10.9
				c1.779,0,3.229,1.449,3.229,3.229v6.12c0,0.424-0.345,0.769-0.771,0.769c-0.425,0-0.77-0.345-0.77-0.769v-6.12
				c0-0.932-0.758-1.691-1.689-1.691h-10.9c-0.932,0-1.69,0.759-1.69,1.691v14.686c0,0.932,0.758,1.689,1.69,1.689h4.283
				c0.425,0,0.77,0.345,0.77,0.771C12.497,20.8,12.152,21.145,11.727,21.145z"/>
		</g>
		<g>
			<path fill="#494949" d="M11.727,21.145H7.444c-1.78,0-3.228-1.449-3.228-3.229V3.229C4.216,1.449,5.664,0,7.444,0h10.9
				c1.779,0,3.229,1.449,3.229,3.229v6.12c0,0.424-0.345,0.769-0.771,0.769c-0.425,0-0.77-0.345-0.77-0.769v-6.12
				c0-0.932-0.758-1.691-1.689-1.691h-10.9c-0.932,0-1.69,0.759-1.69,1.691v14.686c0,0.932,0.758,1.689,1.69,1.689h4.283
				c0.425,0,0.77,0.345,0.77,0.771C12.497,20.8,12.152,21.145,11.727,21.145z"/>
		</g>
		<g>
			<path fill="#494949" d="M18.343,21.145h-7.252c-0.425,0-0.769-0.345-0.769-0.77c0-0.426,0.344-0.771,0.769-0.771h7.252
				c0.933,0,1.69-0.758,1.69-1.689V3.229c0-0.932-0.758-1.691-1.69-1.691H7.444c-0.932,0-1.691,0.759-1.691,1.691v6.12
				c0,0.424-0.344,0.769-0.769,0.769s-0.77-0.345-0.77-0.769v-6.12C4.214,1.449,5.663,0,7.444,0h10.899
				c1.78,0,3.23,1.449,3.23,3.229v14.686C21.574,19.696,20.124,21.145,18.343,21.145z"/>
		</g>
	</g>
	<g>
		<path fill="#494949" d="M15.349,18.048h-4.911c-0.425,0-0.77-0.345-0.77-0.77c0-0.426,0.345-0.77,0.77-0.77h4.911
			c0.426,0,0.77,0.344,0.77,0.77C16.119,17.704,15.775,18.048,15.349,18.048z"/>
	</g>
	<g>
		<path fill="#494949" d="M15.349,15.597h-4.911c-0.425,0-0.77-0.345-0.77-0.77c0-0.426,0.345-0.771,0.77-0.771h4.911
			c0.426,0,0.77,0.345,0.77,0.771C16.119,15.252,15.775,15.597,15.349,15.597z"/>
	</g>
	<g>
		<path fill="#FFFFFF" d="M7.289,4.78L1.94,3.535l1.172,1.921c-0.446,0.467-4.67,5.137-0.525,10.875c0,0-1.784-5.546,2.102-8.293
			l1.263,2.068L7.289,4.78z"/>
		<path fill="#494949" d="M2.588,17.101c-0.24,0-0.475-0.113-0.624-0.319c-3.899-5.398-0.99-9.934,0.199-11.405L1.284,3.936
			c-0.162-0.265-0.149-0.6,0.033-0.852c0.182-0.251,0.495-0.368,0.798-0.299L7.463,4.03c0.201,0.047,0.375,0.173,0.482,0.349
			c0.107,0.176,0.14,0.388,0.089,0.588l-1.335,5.326c-0.075,0.301-0.323,0.527-0.63,0.573c-0.313,0.047-0.611-0.095-0.772-0.359
			L4.498,9.199c-2.272,2.261-1.434,5.957-1.221,6.746c0.067,0.113,0.104,0.245,0.104,0.386c0,0.428-0.36,0.73-0.778,0.771
			C2.598,17.101,2.593,17.101,2.588,17.101z M3.553,4.7L3.77,5.055C3.952,5.353,3.91,5.736,3.669,5.988
			c-0.313,0.328-2.293,2.529-2.098,5.634c0.298-1.505,1.047-3.062,2.675-4.212c0.173-0.124,0.39-0.169,0.6-0.125
			c0.208,0.043,0.39,0.171,0.501,0.353l0.307,0.502l0.699-2.787L3.553,4.7z"/>
	</g>
	<g>
		<path fill="#FFFFFF" d="M18.505,15.726l5.35,1.244l-1.175-1.921c0.447-0.467,4.671-5.137,0.526-10.875
			c0,0,1.783,5.548-2.103,8.294L19.842,10.4L18.505,15.726z"/>
		<path fill="#494949" d="M23.855,17.74c-0.058,0-0.117-0.007-0.175-0.021l-5.349-1.244c-0.201-0.046-0.375-0.172-0.482-0.348
			s-0.14-0.389-0.09-0.588l1.336-5.327c0.076-0.301,0.325-0.526,0.631-0.573c0.306-0.046,0.611,0.096,0.772,0.36l0.798,1.307
			c2.54-2.528,1.192-6.85,1.178-6.896c-0.116-0.36,0.047-0.751,0.386-0.922c0.334-0.171,0.748-0.071,0.971,0.236
			c3.9,5.4,0.989,9.933-0.2,11.405l0.881,1.439c0.162,0.265,0.149,0.6-0.032,0.852C24.333,17.624,24.099,17.74,23.855,17.74z
			 M19.442,15.155l2.8,0.65l-0.218-0.354c-0.182-0.299-0.141-0.682,0.101-0.934c0.314-0.328,2.298-2.529,2.099-5.636
			c-0.297,1.505-1.046,3.064-2.675,4.216c-0.175,0.122-0.391,0.166-0.601,0.125c-0.208-0.043-0.39-0.171-0.5-0.353l-0.307-0.502
			L19.442,15.155z"/>
	</g>
</g>
</svg>
