<svg width="20" height="20" viewBox="0 0 20 20" fill="none" xmlns="http://www.w3.org/2000/svg">
<path d="M10.0499 11.4385C9.75084 11.4407 9.4611 11.5431 9.22695 11.7292C8.9928 11.9153 8.82772 12.1745 8.75803 12.4654C8.68835 12.7563 8.71808 13.0621 8.84247 13.3342C8.96687 13.6062 9.17878 13.8287 9.44439 13.9663V15.5551H10.5555V14.0163C10.8424 13.8987 11.0795 13.6852 11.2265 13.4123C11.3736 13.1394 11.4213 12.8239 11.3616 12.5197C11.302 12.2155 11.1386 11.9414 10.8994 11.7442C10.6602 11.547 10.36 11.439 10.0499 11.4385V11.4385Z" fill="#5AC5B2"/>
<path d="M14.4442 8.33375V5.95597C14.4681 4.75146 14.0139 3.58654 13.1809 2.71613C12.348 1.84571 11.2042 1.34067 9.99978 1.31152C8.79539 1.34067 7.65158 1.84571 6.81865 2.71613C5.98571 3.58654 5.53148 4.75146 5.55534 5.95597V8.33375H3.88867V17.7782C3.88867 18.0729 4.00573 18.3555 4.21411 18.5639C4.42248 18.7722 4.7051 18.8893 4.99978 18.8893H14.9998C15.2945 18.8893 15.5771 18.7722 15.7855 18.5639C15.9938 18.3555 16.1109 18.0729 16.1109 17.7782V8.33375H14.4442ZM6.66645 5.95597C6.6425 5.0461 6.97965 4.16374 7.60423 3.50168C8.22882 2.83962 9.09006 2.45168 9.99978 2.42263C10.9095 2.45168 11.7707 2.83962 12.3953 3.50168C13.0199 4.16374 13.3571 5.0461 13.3331 5.95597V8.33375H6.66645V5.95597ZM4.99978 17.7782V9.44486H14.9998V17.7782H4.99978Z" fill="#5AC5B2"/>
</svg>
