<?xml version="1.0" encoding="utf-8"?>
<!-- Generator: Adobe Illustrator 16.0.0, SVG Export Plug-In . SVG Version: 6.00 Build 0)  -->
<!DOCTYPE svg PUBLIC "-//W3C//DTD SVG 1.1//EN" "http://www.w3.org/Graphics/SVG/1.1/DTD/svg11.dtd">
<svg version="1.1" id="Layer_1" xmlns="http://www.w3.org/2000/svg" xmlns:xlink="http://www.w3.org/1999/xlink" x="0px" y="0px"
	 width="30px" height="30px" viewBox="0 -2 30 30" enable-background="new 0 -2 30 30" xml:space="preserve">
<g>
	<path fill="#FF5961" d="M28.639,20.75L17.814,2C17.232,0.994,16.161,0.375,15,0.375c-1.161,0-2.233,0.619-2.813,1.625L1.36,20.75
		c-0.581,1.006-0.581,2.244,0,3.25c0.58,1.006,1.654,1.625,2.814,1.625h21.65c1.162,0,2.234-0.619,2.814-1.625
		C29.221,22.994,29.221,21.756,28.639,20.75"/>
	<path fill="#FFFFFF" d="M14.992,18.354c0.716,0,1.241,0.525,1.241,1.209v0.176c0,0.683-0.524,1.207-1.241,1.207
		c-0.699,0-1.242-0.524-1.242-1.207v-0.176C13.75,18.88,14.292,18.354,14.992,18.354 M13.75,8.307
		c-0.035-0.42,0.209-0.753,0.613-0.753h1.26c0.401,0,0.664,0.333,0.629,0.753l-0.612,7.142c-0.035,0.385-0.297,0.63-0.646,0.63
		c-0.35,0-0.595-0.245-0.629-0.63L13.75,8.307z"/>
</g>
</svg>
